<svg xmlns="http://www.w3.org/2000/svg" width="40" height="40" fill="#8284FA" viewBox="0 0 256 256">
  <path d="M128,72h88a8,8,0,0,0,0-16H128a8,8,0,0,0,0,16Z" />
  <path d="M228,122a8,8,0,0,1-8,8H128a8,8,0,0,1,0-16h88A8,8,0,0,1,224,128Z" fill="#4EA8DE"/>
  <path d="M128,184h88a8,8,0,0,0,0-16H128a8,8,0,0,0,0,16Z" />
  <path d="M82.34,42.34,56,68.69,45.66,58.34A8,8,0,0,0,34.34,69.66l16,16a8,8,0,0,0,11.32,0l32-32A8,8,0,0,0,82.34,42.34Z" />
  <path d="M82.34,106.34,56,132.69,45.66,122.34a8,8,0,0,0-11.32,11.32l16,16a8,8,0,0,0,11.32,0l32-32A8,8,0,0,0,82.34,106.34Z" fill="#4EA8DE"/>
  <path d="M82.34,170.34,56,196.69,45.66,186.34a8,8,0,0,0-11.32,11.32l16,16a8,8,0,0,0,11.32,0l32-32A8,8,0,0,0,82.34,170.34Z" />
</svg>
